# xmcd
#
# Track frame offsets: 
#        150
#        17897
#        36675
#        58687
#        72765
#        94237
#        112272
#        132270
#        145375
#        163415
#
# Disc length: 2407 seconds
#
# Revision: 3
# Processed by: cddbd v1.5.2PL0 Copyright (c) Steve Scherf et al.
# Submitted via: ExactAudioCopy v0.99pb5
#
DISCID=9f09650a
DTITLE=John Michael Montgomery - Leave A Mark
DYEAR=1998
DGENRE=Country
TTITLE0=Cover You in Kisses
TTITLE1=Hold On to Me
TTITLE2=Little Cowboy's Cry
TTITLE3=It Gets Me Every Time
TTITLE4=I Don't Want This Song to End
TTITLE5=Love Working on You
TTITLE6=I Couldn't Dream
TTITLE7=You're the Ticket
TTITLE8=I Never Stopped Lovin' You
TTITLE9=This One's Gonna Leave a Mark
EXTD=Shellimark Entertainment *Salt Lake City, UT*\nThe Coolest DJ's I
EXTD=n Town\nMarc Taylor\nshellimark@hotmail.com YEAR: 1998 ID3G: 2
EXTT0=
EXTT1=
EXTT2=
EXTT3=
EXTT4=
EXTT5=
EXTT6=
EXTT7=
EXTT8=
EXTT9=
PLAYORDER=
